<?xml version="1.0" standalone="no"?>
<!DOCTYPE svg PUBLIC "-//W3C//DTD SVG 20010904//EN"
 "http://www.w3.org/TR/2001/REC-SVG-20010904/DTD/svg10.dtd">
<svg version="1.0" xmlns="http://www.w3.org/2000/svg"
 width="256.000000pt" height="256.000000pt" viewBox="0 0 256.000000 256.000000"
 preserveAspectRatio="xMidYMid meet">
<metadata>
Created by potrace 1.11, written by Peter Selinger 2001-2013
</metadata>
<g transform="translate(0.000000,256.000000) scale(0.100000,-0.100000)"
fill="#000000" stroke="none">
<path d="M80 1991 c-28 -11 -55 -36 -67 -61 -19 -39 -15 -519 4 -559 22 -43
65 -60 158 -60 44 1 98 0 120 0 l41 -1 -1 -230 -1 -230 51 -1 c27 -1 140 -2
250 -3 l199 -1 1 -77 c1 -43 3 -79 6 -82 2 -2 66 33 141 80 l137 83 33 -32
c31 -30 33 -36 34 -111 2 -85 17 -119 65 -143 18 -10 167 -13 622 -13 653 0
640 -1 671 58 22 42 20 536 -2 574 -21 36 -50 50 -109 51 l-50 2 0 231 c0 127
-3 236 -7 242 -3 6 -31 9 -65 8 -54 -3 -62 -1 -94 29 -34 32 -35 35 -34 103 1
81 -16 116 -66 137 -26 11 -225 13 -1027 13 -547 0 -1002 -3 -1010 -7z m2190
-528 c0 -107 -3 -143 -12 -144 -54 -5 -138 -3 -138 4 0 4 4 7 9 7 5 0 20 14
32 31 19 27 22 44 22 113 -1 78 0 82 29 107 55 47 58 41 58 -118z m-1065 -280
c-11 -16 -16 -51 -17 -108 -2 -70 -5 -86 -19 -90 -9 -3 -20 -12 -23 -20 -3 -8
-11 -15 -17 -15 -11 0 -84 40 -199 109 -19 12 -43 24 -52 27 -10 4 -18 11 -18
16 0 5 -6 8 -12 6 -9 -3 -13 -28 -13 -79 l0 -74 -195 0 -195 0 0 120 c-1 66 0
123 2 126 1 3 176 6 388 6 l385 0 -15 -24z"/>
</g>
</svg>
